<svg width="81" height="76" viewBox="0 0 81 76" fill="none" xmlns="http://www.w3.org/2000/svg">
<path d="M0.211098 36.9645L32.8979 0.282462C33.4771 -0.367508 34.5384 0.196353 34.3252 1.04081L29.7135 19.3136C29.5456 19.9789 30.2085 20.5506 30.841 20.2859L79.0967 0.0863539C79.989 -0.287172 80.6923 0.90726 79.9336 1.50786L40.5024 32.7249C40.1403 33.0116 40.0807 33.5386 40.3695 33.8992L70.2107 71.1433C70.8189 71.9024 69.8551 72.9111 69.0706 72.3365L30.9607 44.4265C30.3578 43.985 29.5243 44.5009 29.6494 45.2381L34.6672 74.8034C34.8074 75.6297 33.7778 76.1224 33.2235 75.4941L0.208349 38.0701C-0.070495 37.7541 -0.0693139 37.2792 0.211098 36.9645Z" fill="#2B2529"/>
</svg>
